<svg width="21" height="15" viewBox="0 0 21 15" fill="none" xmlns="http://www.w3.org/2000/svg">
<rect width="21" height="15" fill="#959393"/>
<g id="About - desktop" clip-path="url(#clip0_0_1)">
<rect width="1440" height="2512" transform="translate(-946 -754)" fill="white"/>
<rect id="Rectangle 10" x="-35.5" y="-171.5" width="409" height="262" stroke="#E0E0E0"/>
<path id="Vector" d="M20.3942 12.7478H19.6851V1.0755C19.6849 0.790346 19.5905 0.516956 19.4226 0.315323C19.2548 0.11369 19.0272 0.000287234 18.7898 0H2.21019C1.97281 0.000287234 1.74522 0.11369 1.57737 0.315323C1.40952 0.516956 1.31511 0.790346 1.31487 1.0755V12.7478H0.605839C0.445215 12.748 0.291222 12.8248 0.177644 12.9612C0.0640661 13.0977 0.000179301 13.2826 0 13.4756V13.8743C0.000358646 14.1728 0.0992653 14.459 0.275025 14.67C0.450785 14.881 0.689047 14.9997 0.937548 15H20.0634C20.3117 14.9994 20.5497 14.8806 20.7253 14.6696C20.9009 14.4586 20.9996 14.1726 21 13.8743V13.4756C20.9998 13.2826 20.9359 13.0977 20.8224 12.9612C20.7088 12.8248 20.5548 12.748 20.3942 12.7478ZM1.88684 1.0755C1.8869 0.972502 1.92099 0.873746 1.98161 0.800917C2.04224 0.728089 2.12445 0.687142 2.21019 0.68707H18.7898C18.8755 0.687142 18.9578 0.728089 19.0184 0.800917C19.079 0.873746 19.1131 0.972502 19.1132 1.0755V12.7478H1.88684V1.0755ZM20.428 13.8743C20.4279 13.9907 20.3893 14.1023 20.3208 14.1846C20.2523 14.2669 20.1594 14.3131 20.0625 14.3132H0.937548C0.840648 14.3131 0.74773 14.2669 0.67919 14.1846C0.610649 14.1023 0.572087 13.9907 0.571968 13.8743V13.4756C0.572196 13.4649 0.575838 13.4547 0.582141 13.4471C0.588445 13.4395 0.596928 13.4352 0.605839 13.4349H20.3942C20.4031 13.4352 20.4116 13.4395 20.4179 13.4471C20.4242 13.4547 20.4278 13.4649 20.428 13.4756V13.8743ZM12.6038 1.80651C12.6038 1.85163 12.5964 1.89631 12.5821 1.93799C12.5677 1.97967 12.5466 2.01753 12.52 2.04943C12.4935 2.08132 12.4619 2.10661 12.4272 2.12385C12.3925 2.14109 12.3553 2.14994 12.3177 2.14991H8.68226C8.64403 2.1512 8.60597 2.14327 8.57033 2.12659C8.53469 2.1099 8.5022 2.0848 8.47478 2.05278C8.44736 2.02075 8.42556 1.98244 8.41068 1.94012C8.39579 1.8978 8.38812 1.85232 8.38812 1.80637C8.38812 1.76043 8.39579 1.71495 8.41068 1.67263C8.42556 1.63031 8.44736 1.592 8.47478 1.55997C8.5022 1.52794 8.53469 1.50285 8.57033 1.48616C8.60597 1.46948 8.64403 1.46155 8.68226 1.46284H12.3177C12.3936 1.46284 12.4663 1.49901 12.52 1.5634C12.5736 1.62779 12.6038 1.71541 12.6038 1.80651Z" fill="#4F4F4F"/>
</g>
<defs>
<clipPath id="clip0_0_1">
<rect width="1440" height="2512" fill="white" transform="translate(-946 -754)"/>
</clipPath>
</defs>
</svg>
