<svg width="20" height="20" viewBox="0 0 20 20" fill="none" xmlns="http://www.w3.org/2000/svg">
<g id="Group 1000002606">
<path id="Vector" d="M14.1177 5.88235H8.23535V6.47059H14.1177V5.88235Z" fill="#4F4F4F"/>
<path id="Vector_2" d="M3.92683 6.58266L2.91855 5.65555L2.35303 6.1915L3.93689 7.64705L6.47067 5.23242L5.89509 4.70587L3.92683 6.58266Z" fill="#4F4F4F"/>
<path id="Vector_3" d="M3.92683 10.7003L2.91855 9.77131L2.35303 10.3091L3.93689 11.7647L6.47067 9.35007L5.89509 8.82352L3.92683 10.7003Z" fill="#4F4F4F"/>
<path id="Vector_4" d="M16.3732 9.48975V0.428045C16.3732 0.31452 16.3282 0.205645 16.2481 0.125372C16.168 0.0450975 16.0594 0 15.9462 0H0.426996C0.31375 0 0.205142 0.0450975 0.125064 0.125372C0.0449869 0.205645 0 0.31452 0 0.428045V14.7782C0 14.8918 0.0449869 15.0006 0.125064 15.0809C0.205142 15.1612 0.31375 15.2063 0.426996 15.2063H9.97036C10.1231 16.0966 10.5106 16.9297 11.0928 17.6192C11.6749 18.3088 12.4305 18.8297 13.2811 19.1279C14.1317 19.4261 15.0464 19.4908 15.9304 19.3152C16.8143 19.1397 17.6353 18.7302 18.3082 18.1294C18.9812 17.5286 19.4815 16.7583 19.7574 15.8983C20.0333 15.0384 20.0747 14.1201 19.8773 13.2387C19.6799 12.3573 19.2509 11.5448 18.6347 10.8857C18.0186 10.2265 17.2377 9.74451 16.3732 9.48975ZM0.853992 0.85609H15.5192V2.39705H0.853992V0.85609ZM0.853992 14.3502V3.25314H15.5192V9.30997C15.3292 9.28777 15.1382 9.27634 14.947 9.27573C14.1148 9.27431 13.2953 9.48023 12.5622 9.87499V9.80437H8.17911V10.6605H11.4819C10.9808 11.133 10.5816 11.7034 10.3088 12.3365C10.0359 12.9696 9.89534 13.652 9.89564 14.3416L0.853992 14.3502ZM14.9449 18.5515C14.1144 18.551 13.3027 18.3038 12.6123 17.8409C11.922 17.3781 11.3841 16.7205 11.0666 15.9512C10.749 15.1819 10.6662 14.3355 10.8284 13.519C10.9907 12.7026 11.3909 11.9526 11.9783 11.3641C12.5657 10.7756 13.3139 10.3748 14.1285 10.2126C14.9431 10.0503 15.7873 10.1338 16.5546 10.4525C17.3218 10.7712 17.9776 11.3108 18.4389 12.003C18.9003 12.6953 19.1465 13.5091 19.1465 14.3416C19.1454 15.4578 18.7026 16.5279 17.9153 17.3172C17.1279 18.1064 16.0604 18.5503 14.947 18.5515H14.9449Z" fill="#4F4F4F"/>
<path id="Vector_5" d="M15.4371 11.7647H14.5609V13.9726H12.353V14.8487H14.5609V17.0588H15.4371V14.8487H17.6471V13.9726H15.4371V11.7647Z" fill="#4F4F4F"/>
</g>
</svg>
