<svg width="23" height="14" viewBox="0 0 23 14" fill="none" xmlns="http://www.w3.org/2000/svg">
<g id="Frame 48095539">
<g id="Group 1000002605">
<g id="Group">
<g id="Group_2">
<g id="Group_3">
<path id="Vector" d="M0 0V14H23V0H0ZM21.959 13.0439H1.04105V1.00162H21.959V13.0439Z" fill="#4F4F4F"/>
<path id="Vector_2" d="M9.24854 10.4488C9.41801 10.5398 9.6117 10.5854 9.78117 10.5854C9.97486 10.5854 10.1927 10.5398 10.3622 10.426L14.6475 7.8992C14.9622 7.71709 15.1559 7.37562 15.1559 7.01139C15.1559 6.64716 14.9622 6.32846 14.6475 6.12358L10.3622 3.59675C10.0233 3.39187 9.58749 3.39188 9.24854 3.57399C8.88538 3.75611 8.66748 4.09757 8.66748 4.48456V9.51546C8.66748 9.90245 8.88538 10.2667 9.24854 10.4488ZM9.70853 4.48456C9.70853 4.48456 9.70854 4.43903 9.73275 4.43903C9.75696 4.43903 9.75695 4.43903 9.75695 4.43903C9.78116 4.43903 9.78117 4.43903 9.78117 4.43903L14.0664 6.96586C14.0664 6.96586 14.0906 6.98862 14.0906 7.01139C14.0906 7.05692 14.0664 7.05692 14.0664 7.05692L9.78117 9.58375C9.78117 9.58375 9.75695 9.60651 9.70853 9.58375C9.68432 9.56098 9.68433 9.53822 9.68433 9.53822V4.48456H9.70853Z" fill="#4F4F4F"/>
</g>
</g>
</g>
</g>
</g>
</svg>
